<?xml version="1.0" standalone="no"?>
<!DOCTYPE svg PUBLIC "-//W3C//DTD SVG 20010904//EN"
 "http://www.w3.org/TR/2001/REC-SVG-20010904/DTD/svg10.dtd">
<svg version="1.0" xmlns="http://www.w3.org/2000/svg"
 width="16.000000pt" height="16.000000pt" viewBox="0 0 16.000000 16.000000"
 preserveAspectRatio="xMidYMid meet">
<metadata>
Created by potrace 1.11, written by Peter Selinger 2001-2013
</metadata>
<g transform="translate(0.000000,16.000000) scale(0.003712,-0.003712)"
fill="#000000" stroke="none">
<path d="M1498 3490 c-40 -40 -48 -54 -48 -85 0 -20 -4 -34 -8 -31 -5 3 -20 7
-33 9 -14 3 -76 19 -139 36 l-113 32 -41 -38 c-60 -57 -65 -65 -66 -102 0 -24
-4 -32 -14 -28 -8 3 -30 9 -50 12 -32 7 -39 3 -86 -41 -42 -42 -50 -55 -50
-86 l0 -37 -47 14 -48 15 -52 -52 c-43 -43 -53 -59 -53 -86 0 -31 -2 -34 -25
-28 -14 3 -35 8 -48 11 -17 5 -34 -5 -75 -45 l-52 -50 0 -199 0 -200 53 -15
c28 -8 73 -20 99 -26 l47 -12 3 -102 3 -101 95 -25 95 -25 3 -101 3 -102 57
-15 c31 -9 76 -21 99 -27 l42 -11 3 -101 3 -101 90 -23 c50 -13 93 -23 98 -24
4 0 7 -46 7 -103 l0 -102 98 -25 97 -26 3 -101 3 -101 57 -15 c31 -9 76 -21
99 -27 l42 -11 3 -101 3 -102 98 -25 97 -25 0 -101 0 -102 43 -10 c38 -10 281
-74 333 -89 33 -9 124 89 124 133 0 31 2 33 28 27 15 -4 36 -10 48 -15 17 -6
31 2 73 46 41 44 51 61 51 89 l0 35 47 -14 48 -15 52 52 c43 43 53 59 53 86 0
31 2 34 25 28 14 -3 35 -8 48 -11 17 -5 34 5 75 45 43 42 52 56 52 85 0 34 1
35 28 29 15 -4 36 -10 48 -15 32 -11 124 84 124 129 0 35 6 37 60 22 33 -10
36 -8 87 42 43 42 53 59 53 85 0 38 -3 37 54 22 l44 -11 51 52 c41 42 51 58
51 86 0 19 1 34 3 34 1 0 23 -7 48 -14 l46 -14 52 52 51 52 0 200 0 201 -67
17 c-38 10 -81 21 -98 25 l-30 7 -3 101 -3 102 -52 14 c-29 8 -73 20 -99 27
l-47 12 -3 101 -3 101 -97 26 -98 25 0 101 0 101 -142 37 c-79 21 -169 45
-200 54 l-58 15 0 101 0 101 -238 62 c-130 35 -396 106 -591 158 -194 52 -359
95 -365 94 -6 0 -32 -22 -58 -49z"/>
</g>
</svg>
